<svg xmlns="http://www.w3.org/2000/svg" version="1.1" xmlns:xlink="http://www.w3.org/1999/xlink" xmlns:svgjs="http://svgjs.dev/svgjs" width="2000" height="1247" viewBox="0 0 2000 1247"><g transform="matrix(1,0,0,1,-1.2121212121212466,0.504858299595071)"><svg viewBox="0 0 396 247" data-background-color="#efefef" preserveAspectRatio="xMidYMid meet" height="1247" width="2000" xmlns="http://www.w3.org/2000/svg" xmlns:xlink="http://www.w3.org/1999/xlink"><g id="tight-bounds" transform="matrix(1,0,0,1,0.2400000000000091,-0.09999999999999432)"><svg viewBox="0 0 395.52 247.2" height="247.2" width="395.52"><g><svg></svg></g><g><svg viewBox="0 0 395.52 247.2" height="247.2" width="395.52"><g transform="matrix(1,0,0,1,75.54432,102.40902929936306)"><svg viewBox="0 0 244.43135999999998 42.38194140127388" height="42.38194140127388" width="244.43135999999998"><g><svg viewBox="0 0 244.43135999999998 42.38194140127388" height="42.38194140127388" width="244.43135999999998"><g><svg viewBox="0 0 244.43135999999998 42.38194140127388" height="42.38194140127388" width="244.43135999999998"><g><svg viewBox="0 0 244.43135999999998 42.38194140127388" height="42.38194140127388" width="244.43135999999998"><g id="textblocktransform"><svg viewBox="0 0 244.43135999999998 42.38194140127388" height="42.38194140127388" width="244.43135999999998" id="textblock"><g><svg viewBox="0 0 244.43135999999998 42.38194140127388" height="42.38194140127388" width="244.43135999999998"><g transform="matrix(1,0,0,1,0,0)"><svg width="244.43135999999998" viewBox="2.05 -36.15 211.92 36.75" height="42.38194140127388" data-palette-color="#d94e28"><path d="M13.6 0.6Q8.5 0.6 5.28-1.9 2.05-4.4 2.05-9.7L2.05-9.7 2.1-10.7 6.65-10.7 6.6-9.65Q6.6-6.6 8.47-5.03 10.35-3.45 13.4-3.45L13.4-3.45Q16.85-3.45 18.73-4.93 20.6-6.4 20.6-9.15L20.6-9.15Q20.6-11 19.58-12.18 18.55-13.35 17.03-14.05 15.5-14.75 12.85-15.6L12.85-15.6Q9.6-16.7 7.6-17.7 5.6-18.7 4.17-20.63 2.75-22.55 2.75-25.7L2.75-25.7Q2.75-30.2 5.8-32.55 8.85-34.9 13.65-34.9L13.65-34.9Q18.45-34.9 21.43-32.52 24.4-30.15 24.4-25.25L24.4-25.25 24.4-24.65 19.85-24.65 19.85-25.4Q19.85-27.95 18.13-29.4 16.4-30.85 13.75-30.85L13.75-30.85Q10.9-30.85 9.15-29.63 7.4-28.4 7.4-26.05L7.4-26.05Q7.4-24.3 8.4-23.18 9.4-22.05 10.9-21.38 12.4-20.7 15-19.85L15-19.85Q18.3-18.75 20.33-17.78 22.35-16.8 23.78-14.88 25.2-12.95 25.2-9.9L25.2-9.9Q25.2-4.4 22.08-1.9 18.95 0.6 13.6 0.6L13.6 0.6ZM35 0.5Q32.5 0.5 31.4-1.23 30.3-2.95 30.3-5.55L30.3-5.55 30.3-22.65 28.05-22.65 28.05-26.3 30.3-26.3 31.2-33.6 34.4-33.6 34.4-26.3 37.95-26.3 37.95-22.65 34.4-22.65 34.4-5.45Q34.4-3.05 36.75-3.05L36.75-3.05 37.95-3.05 37.95-0.2Q37.4 0.1 36.57 0.3 35.75 0.5 35 0.5L35 0.5ZM41.75 0L41.75-26.3 44.85-26.3 45.4-22.85 45.7-22.85Q46.25-24.6 47.35-25.75 48.45-26.9 50.15-26.9L50.15-26.9Q51.2-26.9 52.1-26.5L52.1-26.5 52.1-22.25 50.75-22.25Q48.6-22.25 47.22-20.78 45.85-19.3 45.85-16.05L45.85-16.05 45.85 0 41.75 0ZM64.44 0.6Q59.44 0.6 56.97-2.68 54.49-5.95 54.49-13.15L54.49-13.15Q54.49-20.2 56.94-23.55 59.39-26.9 64.39-26.9L64.39-26.9Q68.79-26.9 70.92-23.98 73.04-21.05 73.04-14.55L73.04-14.55 73.04-11.95 58.79-11.95Q58.84-7.35 60.22-5.2 61.59-3.05 64.54-3.05L64.54-3.05Q66.54-3.05 67.77-4.65 68.99-6.25 68.99-8.95L68.99-8.95 73.04-8.95Q73.04-4.55 70.67-1.98 68.29 0.6 64.44 0.6L64.44 0.6ZM58.84-15.6L68.74-15.6Q68.74-19.35 67.64-21.3 66.54-23.25 64.39-23.25L64.39-23.25Q61.74-23.25 60.42-21.38 59.09-19.5 58.84-15.6L58.84-15.6ZM87.24 0.6Q82.24 0.6 79.77-2.68 77.29-5.95 77.29-13.15L77.29-13.15Q77.29-20.2 79.74-23.55 82.19-26.9 87.19-26.9L87.19-26.9Q91.59-26.9 93.72-23.98 95.84-21.05 95.84-14.55L95.84-14.55 95.84-11.95 81.59-11.95Q81.64-7.35 83.02-5.2 84.39-3.05 87.34-3.05L87.34-3.05Q89.34-3.05 90.57-4.65 91.79-6.25 91.79-8.95L91.79-8.95 95.84-8.95Q95.84-4.55 93.47-1.98 91.09 0.6 87.24 0.6L87.24 0.6ZM81.64-15.6L91.54-15.6Q91.54-19.35 90.44-21.3 89.34-23.25 87.19-23.25L87.19-23.25Q84.54-23.25 83.22-21.38 81.89-19.5 81.64-15.6L81.64-15.6ZM105.64 0.5Q103.14 0.5 102.04-1.23 100.94-2.95 100.94-5.55L100.94-5.55 100.94-22.65 98.69-22.65 98.69-26.3 100.94-26.3 101.84-33.6 105.04-33.6 105.04-26.3 108.59-26.3 108.59-22.65 105.04-22.65 105.04-5.45Q105.04-3.05 107.39-3.05L107.39-3.05 108.59-3.05 108.59-0.2Q108.04 0.1 107.21 0.3 106.39 0.5 105.64 0.5L105.64 0.5ZM112.89 0L112.89-34.3 125.14-34.3Q130.09-34.3 132.74-31.6 135.39-28.9 135.39-24.3L135.39-24.3Q135.39-19.7 132.61-16.93 129.84-14.15 125.14-14.15L125.14-14.15 117.29-14.15 117.29 0 112.89 0ZM117.29-18.15L124.99-18.15Q127.59-18.15 129.19-19.83 130.79-21.5 130.79-24.3L130.79-24.3Q130.79-27.1 129.29-28.7 127.79-30.3 124.99-30.3L124.99-30.3 117.29-30.3 117.29-18.15ZM145.33 0.6Q142.63 0.6 140.53-1 138.43-2.6 138.43-6.8L138.43-6.8Q138.43-11.85 141.86-13.73 145.28-15.6 151.73-15.6L151.73-15.6 151.73-19Q151.73-21.05 150.83-22.15 149.93-23.25 147.58-23.25L147.58-23.25Q145.43-23.25 144.48-22.05 143.53-20.85 143.53-19.1L143.53-19.1 143.53-18.5 139.48-18.5Q139.43-18.8 139.43-19.6L139.43-19.6Q139.43-23.1 141.73-25 144.03-26.9 147.88-26.9L147.88-26.9Q151.83-26.9 153.83-25 155.83-23.1 155.83-19.55L155.83-19.55 155.83-4.8Q155.83-3.95 156.23-3.5 156.63-3.05 157.23-3.05L157.23-3.05 158.83-3.05 158.83-0.2Q157.73 0.4 156.13 0.4L156.13 0.4Q154.53 0.4 153.46-0.48 152.38-1.35 151.98-2.85L151.98-2.85 151.73-2.85Q150.73-1.2 149.06-0.3 147.38 0.6 145.33 0.6L145.33 0.6ZM146.28-3.05Q147.63-3.05 148.88-3.8 150.13-4.55 150.93-6.03 151.73-7.5 151.73-9.55L151.73-9.55 151.73-11.95Q147.23-11.95 144.98-10.93 142.73-9.9 142.73-7.05L142.73-7.05Q142.73-4.9 143.61-3.98 144.48-3.05 146.28-3.05L146.28-3.05ZM167.18 0.5Q164.68 0.5 163.58-1.23 162.48-2.95 162.48-5.55L162.48-5.55 162.48-22.65 160.23-22.65 160.23-26.3 162.48-26.3 163.38-33.6 166.58-33.6 166.58-26.3 170.13-26.3 170.13-22.65 166.58-22.65 166.58-5.45Q166.58-3.05 168.93-3.05L168.93-3.05 170.13-3.05 170.13-0.2Q169.58 0.1 168.76 0.3 167.93 0.5 167.18 0.5L167.18 0.5ZM173.93 0L173.93-26.3 177.03-26.3 177.58-22.85 177.88-22.85Q178.43-24.6 179.53-25.75 180.63-26.9 182.33-26.9L182.33-26.9Q183.38-26.9 184.28-26.5L184.28-26.5 184.28-22.25 182.93-22.25Q180.78-22.25 179.4-20.78 178.03-19.3 178.03-16.05L178.03-16.05 178.03 0 173.93 0ZM195.98 0.6Q191.33 0.6 188.95-2.78 186.58-6.15 186.58-13.15L186.58-13.15Q186.58-20.15 188.95-23.53 191.33-26.9 195.98-26.9L195.98-26.9Q200.63-26.9 203-23.53 205.38-20.15 205.38-13.15L205.38-13.15Q205.38-6.15 203-2.78 200.63 0.6 195.98 0.6L195.98 0.6ZM195.98-3.05Q201.08-3.05 201.08-12.2L201.08-12.2 201.08-14.1Q201.08-23.25 195.98-23.25L195.98-23.25Q190.88-23.25 190.88-14.1L190.88-14.1 190.88-12.2Q190.88-3.05 195.98-3.05L195.98-3.05ZM209.87 0L209.87-36.15 213.97-36.15 213.97 0 209.87 0Z" opacity="1" transform="matrix(1,0,0,1,0,0)" fill="#d94e28" class="wordmark-text-0" data-fill-palette-color="primary" id="text-0"></path></svg></g></svg></g></svg></g></svg></g></svg></g></svg></g></svg></g><path d="M210.122 96.409L210.122 34.509 388.305 34.509 388.305 212.691 210.122 212.691 210.122 150.791 213.944 150.791 213.944 208.869 384.483 208.869 384.483 38.331 213.944 38.331 213.944 96.409Z" fill="#d94e28" stroke="transparent" data-fill-palette-color="tertiary"></path></svg></g><defs></defs></svg><rect width="395.52" height="247.2" fill="none" stroke="none" visibility="hidden"></rect></g></svg></g></svg>